<svg xmlns="http://www.w3.org/2000/svg" viewBox="535 85 225 205">
  <path fill="currentColor" d="M746.539,123.857l-9.04-4.902c0,0,1.741-8.604-4.138-11.108c0,0-5.229-4.03-17.97-2.288
    c0,0-7.732,0.764-10.021,4.357c0,0-7.294-0.544-10.998,9.039c0,0-7.73,6.209-3.157,12.96c0,0-3.052,9.584-11.438,10.456
    c0,0-12.305,1.089-21.561,4.464c0,0-40.403-4.138-62.511-1.415c0,0-21.456-3.595-29.406-16.446c0,0-18.077-27.334-19.603-35.829
    c0,0-2.831,9.802,2.286,26.247l-1.742-0.654c0,0-0.544,11.87,14.703,21.781l-1.743-0.107c0,0,8.276,4.9,14.158,7.513
    c0,0,9.802,3.158,6.425,13.504c0,0-7.514,15.247-4.9,25.157c0,0,2.94,16.335,1.089,28.098c0,0-1.633,8.168-5.118,10.238
    c0,0-4.465,2.614,0,10.128l1.197,20.692l3.921,6.098c0,0,2.723,0.98,5.228,0c0,0,6.969,2.287,5.882-4.139
    c0,0,0.762-4.354-6.862-5.226c0,0-3.92-15.029,2.505-25.159c0,0,4.247,14.702,4.683,22c0,0-0.325,3.267,3.814,3.267h9.582
    c0,0,2.396-6.753-7.513-8.169c0,0-4.794-16.008,2.613-26.571c0,0,16.881-19.93,17.097-31.584c0,0,5.882-4.901,17.316,3.593
    c0,0,22.108,16.883,45.524,17.644c0,0-0.329,5.229,3.049,6.969c0,0,1.851,21.02,0,29.625c0,0-3.378,10.562,1.851,12.415
    c0,0,2.615,5.226,2.503,11.325c0,0,0.112,4.138,3.05,3.811h6.645c0,0,6.642,0.326,6.642-4.029c0,0,1.198-2.396-6.642-4.137
    c0,0-2.615-2.833-2.615-5.555h8.713c0,0,0.762-8.278-6.317-9.912c0,0-1.632-19.71,3.923-34.739c0,0,7.732-20.694,12.74-26.248
    c0,0,6.099-7.078,5.445-17.97c0,0,5.771-12.85,7.188-21.672c0,0,0.545-5.446,6.859-6.861c0,0,9.042,0.763,12.855-1.523
    c0,0,5.008-0.764,4.899-7.08C747.629,131.916,752.203,125.707,746.539,123.857z"/>
</svg>
